<svg xmlns="http://www.w3.org/2000/svg" viewBox="0 0 256 256" role="img" aria-labelledby="title desc">
  <title id="title">Code Warriors icon</title>
  <desc id="desc">Colorful football crest with code brackets, sword and warm red orange palette.</desc>
  <defs>
    <linearGradient id="bg" x1="30" y1="22" x2="226" y2="238" gradientUnits="userSpaceOnUse">
      <stop stop-color="#111827"/>
      <stop offset="0.42" stop-color="#DC2626"/>
      <stop offset="1" stop-color="#F59E0B"/>
    </linearGradient>
    <filter id="shadow" x="-20%" y="-20%" width="140%" height="150%">
      <feDropShadow dx="0" dy="10" stdDeviation="10" flood-color="#111827" flood-opacity="0.30"/>
    </filter>
  </defs>
  <path filter="url(#shadow)" d="M128 14 218 48v68c0 56-36 101-90 126-54-25-90-70-90-126V48l90-34Z" fill="url(#bg)"/>
  <path d="M128 27 205 56v59c0 46-28 83-77 106-49-23-77-60-77-106V56l77-29Z" fill="none" stroke="#FFFFFF" stroke-opacity="0.86" stroke-width="6"/>
  <path d="M68 97 43 125l25 28M188 97l25 28-25 28" fill="none" stroke="#FFFFFF" stroke-width="11" stroke-linecap="round" stroke-linejoin="round"/>
  <path d="M146 83 107 173" stroke="#FDE68A" stroke-width="11" stroke-linecap="round"/>
  <g transform="translate(128 133)">
    <path d="M0-62 14-14 54-2 15 13 0 64-15 13-54-2-14-14Z" fill="#FDE68A" opacity="0.96"/>
    <path d="M0-43 9-10 38-2 10 8 0 45-10 8-38-2-9-10Z" fill="#DC2626"/>
  </g>
  <path d="M94 188h68" stroke="#FFFFFF" stroke-width="8" stroke-linecap="round"/>
  <text x="128" y="212" text-anchor="middle" font-family="Space Grotesk, Lexend, Arial, sans-serif" font-size="18" font-weight="800" fill="#FFFFFF" letter-spacing="1.1">WARRIORS</text>
</svg>
