<svg xmlns="http://www.w3.org/2000/svg" viewBox="0 0 256 256" role="img" aria-labelledby="title desc">
  <title id="title">Innovation FC icon</title>
  <desc id="desc">Colorful football crest with lightbulb and rocket spark, orange pink violet palette.</desc>
  <defs>
    <linearGradient id="bg" x1="28" y1="20" x2="226" y2="238" gradientUnits="userSpaceOnUse">
      <stop stop-color="#F97316"/>
      <stop offset="0.52" stop-color="#EC4899"/>
      <stop offset="1" stop-color="#8B5CF6"/>
    </linearGradient>
    <filter id="shadow" x="-20%" y="-20%" width="140%" height="150%">
      <feDropShadow dx="0" dy="10" stdDeviation="10" flood-color="#4C0519" flood-opacity="0.24"/>
    </filter>
  </defs>
  <path filter="url(#shadow)" d="M128 14 218 48v68c0 56-36 101-90 126-54-25-90-70-90-126V48l90-34Z" fill="url(#bg)"/>
  <path d="M128 27 205 56v59c0 46-28 83-77 106-49-23-77-60-77-106V56l77-29Z" fill="none" stroke="#FFFFFF" stroke-opacity="0.86" stroke-width="6"/>
  <g opacity="0.42" fill="#FFFFFF">
    <circle cx="72" cy="83" r="5"/><circle cx="190" cy="79" r="4"/><circle cx="203" cy="151" r="5"/><circle cx="61" cy="162" r="4"/>
    <path d="M73 117 84 96 95 117 116 128 95 139 84 160 73 139 52 128Z" opacity="0.38"/>
  </g>
  <g transform="translate(128 118)">
    <path d="M-36-2c0-24 18-42 36-42s36 18 36 42c0 16-8 28-19 37-5 4-7 8-7 15h-20c0-7-2-11-7-15-11-9-19-21-19-37Z" fill="#FFF7ED"/>
    <path d="M-17 58h34M-14 72h28" stroke="#0F172A" stroke-width="7" stroke-linecap="round"/>
    <path d="M-11-1 0 13 14-11" stroke="#F97316" stroke-width="7" stroke-linecap="round" stroke-linejoin="round"/>
    <path d="M0-63v18M47-43 34-31M63 4H45M-47-43-34-31M-63 4h18" stroke="#FFFFFF" stroke-width="7" stroke-linecap="round"/>
  </g>
  <g transform="translate(176 178) rotate(20)">
    <path d="M0-28c15 8 24 23 24 43l-14-7-10 14-10-14-14 7c0-20 9-35 24-43Z" fill="#22D3EE"/>
    <circle cy="-5" r="7" fill="#FFFFFF"/>
  </g>
  <text x="128" y="213" text-anchor="middle" font-family="Space Grotesk, Lexend, Arial, sans-serif" font-size="18" font-weight="800" fill="#FFFFFF" letter-spacing="1.1">INNOVATION</text>
</svg>
