<svg xmlns="http://www.w3.org/2000/svg" viewBox="0 0 256 256" role="img" aria-labelledby="title desc">
  <title id="title">Pixel FC icon</title>
  <desc id="desc">Colorful pixel football crest with blocky ball and magenta yellow cyan palette.</desc>
  <defs>
    <linearGradient id="bg" x1="30" y1="22" x2="226" y2="238" gradientUnits="userSpaceOnUse">
      <stop stop-color="#EC4899"/>
      <stop offset="0.45" stop-color="#A855F7"/>
      <stop offset="1" stop-color="#FACC15"/>
    </linearGradient>
    <filter id="shadow" x="-20%" y="-20%" width="140%" height="150%">
      <feDropShadow dx="0" dy="10" stdDeviation="10" flood-color="#581C87" flood-opacity="0.25"/>
    </filter>
  </defs>
  <path filter="url(#shadow)" d="M128 14 218 48v68c0 56-36 101-90 126-54-25-90-70-90-126V48l90-34Z" fill="url(#bg)"/>
  <path d="M128 27 205 56v59c0 46-28 83-77 106-49-23-77-60-77-106V56l77-29Z" fill="none" stroke="#FFFFFF" stroke-opacity="0.86" stroke-width="6"/>
  <g opacity="0.35">
    <rect x="61" y="79" width="14" height="14" fill="#FFFFFF"/><rect x="181" y="83" width="14" height="14" fill="#FFFFFF"/><rect x="50" y="151" width="12" height="12" fill="#FFFFFF"/><rect x="195" y="154" width="12" height="12" fill="#FFFFFF"/>
  </g>
  <g transform="translate(68 78)">
    <rect x="24" y="0" width="72" height="16" fill="#FFFFFF"/>
    <rect x="8" y="16" width="104" height="16" fill="#FFFFFF"/>
    <rect x="0" y="32" width="120" height="48" fill="#FFFFFF"/>
    <rect x="8" y="80" width="104" height="16" fill="#FFFFFF"/>
    <rect x="24" y="96" width="72" height="16" fill="#FFFFFF"/>
    <rect x="48" y="24" width="24" height="24" fill="#111827"/>
    <rect x="24" y="48" width="24" height="24" fill="#111827"/>
    <rect x="72" y="48" width="24" height="24" fill="#111827"/>
    <rect x="48" y="72" width="24" height="24" fill="#111827"/>
    <rect x="8" y="32" width="16" height="16" fill="#22D3EE"/>
    <rect x="96" y="64" width="16" height="16" fill="#FACC15"/>
  </g>
  <path d="M89 184h78" stroke="#FFFFFF" stroke-width="9" stroke-linecap="square"/>
  <text x="128" y="213" text-anchor="middle" font-family="Space Grotesk, Lexend, Arial, sans-serif" font-size="22" font-weight="800" fill="#FFFFFF" letter-spacing="1.4">PIXEL</text>
</svg>
