<svg xmlns="http://www.w3.org/2000/svg" viewBox="0 0 256 256" role="img" aria-labelledby="title desc">
  <title id="title">VR CONCEPT FC icon</title>
  <desc id="desc">Colorful football crest with VR headset, neon teal and lime accents.</desc>
  <defs>
    <linearGradient id="bg" x1="26" y1="24" x2="230" y2="232" gradientUnits="userSpaceOnUse">
      <stop stop-color="#00C4BE"/>
      <stop offset="0.55" stop-color="#05A2AC"/>
      <stop offset="1" stop-color="#DEE149"/>
    </linearGradient>
    <linearGradient id="shine" x1="64" y1="36" x2="184" y2="190" gradientUnits="userSpaceOnUse">
      <stop stop-color="#FFFFFF" stop-opacity="0.9"/>
      <stop offset="1" stop-color="#FFFFFF" stop-opacity="0"/>
    </linearGradient>
    <filter id="shadow" x="-20%" y="-20%" width="140%" height="150%">
      <feDropShadow dx="0" dy="10" stdDeviation="10" flood-color="#023A3D" flood-opacity="0.28"/>
    </filter>
  </defs>
  <path filter="url(#shadow)" d="M128 14 218 48v68c0 56-36 101-90 126-54-25-90-70-90-126V48l90-34Z" fill="url(#bg)"/>
  <path d="M128 26 206 55v61c0 46-28 84-78 108-50-24-78-62-78-108V55l78-29Z" fill="none" stroke="#FFFFFF" stroke-opacity="0.82" stroke-width="6"/>
  <path d="M61 60c27-14 78-22 131 5-48 4-91 23-126 57-5-19-5-41-5-62Z" fill="url(#shine)" opacity="0.55"/>
  <g transform="translate(0 2)">
    <rect x="61" y="88" width="134" height="58" rx="23" fill="#222222"/>
    <path d="M76 103c10-11 27-13 43-5h18c16-8 33-6 43 5 11 13 10 35-3 45-10 7-25 3-34-8h-30c-9 11-24 15-34 8-13-10-14-32-3-45Z" fill="#FFFFFF"/>
    <circle cx="99" cy="124" r="17" fill="#00C4BE"/>
    <circle cx="157" cy="124" r="17" fill="#DEE149"/>
    <path d="M91 124h16M99 116v16" stroke="#222222" stroke-width="5" stroke-linecap="round"/>
    <path d="M151 124h12" stroke="#222222" stroke-width="5" stroke-linecap="round"/>
    <path d="M120 128h16" stroke="#222222" stroke-width="5" stroke-linecap="round"/>
  </g>
  <g transform="translate(128 178)">
    <circle r="28" fill="#FFFFFF"/>
    <path d="M0-16 15-5 9 13H-9L-15-5Z" fill="#222222"/>
    <path d="M0-28v12M26-9 15-5M16 23 9 13M-16 23-9 13M-26-9-15-5" stroke="#222222" stroke-width="5" stroke-linecap="round"/>
  </g>
  <text x="128" y="76" text-anchor="middle" font-family="Space Grotesk, Lexend, Arial, sans-serif" font-size="22" font-weight="800" fill="#FFFFFF" letter-spacing="1.5">VR</text>
</svg>
